<svg width="24" height="24" viewBox="0 0 24 24" fill="none" xmlns="http://www.w3.org/2000/svg">
<path fill-rule="evenodd" clip-rule="evenodd" d="M1 12C1 18.0751 5.92487 23 12 23C18.0751 23 23 18.0751 23 12C23 5.92487 18.0751 1 12 1C5.92487 1 1 5.92487 1 12ZM12 0C5.37258 0 0 5.37258 0 12C0 18.6274 5.37258 24 12 24C18.6274 24 24 18.6274 24 12C24 5.37258 18.6274 0 12 0Z" fill="#E8E8E8"/>
<path d="M12.694 6C12.3957 6 12.1096 6.11849 11.8987 6.32941C11.6878 6.54034 11.5693 6.82641 11.5693 7.12469C11.5693 7.42298 11.6878 7.70905 11.8987 7.91997C12.1096 8.13089 12.3957 8.24939 12.694 8.24939C12.9923 8.24939 13.2783 8.13089 13.4892 7.91997C13.7002 7.70905 13.8187 7.42298 13.8187 7.12469C13.8187 6.82641 13.7002 6.54034 13.4892 6.32941C13.2783 6.11849 12.9923 6 12.694 6ZM12.424 9.57652C11.5318 9.6515 9.09495 11.5935 9.09495 11.5935C8.945 11.7059 8.98998 11.6984 9.10995 11.9084C9.22992 12.1108 9.21492 12.1258 9.35738 12.0284C9.50734 11.9309 9.75477 11.7734 10.1672 11.5185C11.7567 10.4988 10.4221 12.8531 9.73978 16.8195C9.46985 18.784 11.2394 17.7718 11.6967 17.4719C12.1466 17.1794 13.3538 16.3472 13.4738 16.2647C13.6387 16.1522 13.5187 16.0623 13.3913 15.8748C13.3013 15.7473 13.2113 15.8373 13.2113 15.8373C12.724 16.1597 11.8317 16.8345 11.7117 16.4072C11.5693 15.9798 12.484 13.0481 12.9864 11.0311C13.0689 10.5513 13.2938 9.50154 12.424 9.57652Z" fill="#707070"/>
</svg>
