<svg width="20" height="19" viewBox="0 0 20 19" fill="none" xmlns="http://www.w3.org/2000/svg">
<path fill-rule="evenodd" clip-rule="evenodd" d="M13.4583 14.3693C10.3198 16.8131 5.77911 16.5923 2.89393 13.7071C-0.230267 10.583 -0.230267 5.51763 2.89393 2.39344C6.01812 -0.730756 11.0834 -0.730756 14.2076 2.39344C17.0928 5.27862 17.3135 9.81928 14.8698 12.9578C14.8851 12.9713 14.9001 12.9854 14.9147 13L19.1574 17.2427C19.5479 17.6332 19.5479 18.2664 19.1574 18.6569C18.7669 19.0474 18.1337 19.0474 17.7432 18.6569L13.5005 14.4143C13.4859 14.3996 13.4718 14.3846 13.4583 14.3693ZM4.30814 12.2929C6.65129 14.6361 10.4503 14.6361 12.7934 12.2929C15.1366 9.94979 15.1366 6.1508 12.7934 3.80765C10.4503 1.46451 6.65129 1.46451 4.30814 3.80765C1.965 6.1508 1.965 9.94979 4.30814 12.2929Z" fill="#BABABA"/>
</svg>
