<svg width="15" height="19" viewBox="0 0 15 19" fill="none" xmlns="http://www.w3.org/2000/svg">
<path d="M3.44531 18.6016H12.4062C13.224 18.6016 13.8359 18.3984 14.2422 17.9922C14.6536 17.5859 14.8594 16.9818 14.8594 16.1797V8.38281C14.8594 7.58073 14.6536 6.97656 14.2422 6.57031C13.8359 6.16406 13.224 5.96094 12.4062 5.96094H10.2266V7.21875H12.3828C12.7682 7.21875 13.0677 7.32292 13.2812 7.53125C13.4948 7.73958 13.6016 8.04688 13.6016 8.45312V16.1094C13.6016 16.5156 13.4948 16.8229 13.2812 17.0312C13.0677 17.2396 12.7682 17.3438 12.3828 17.3438H3.46094C3.07031 17.3438 2.77083 17.2396 2.5625 17.0312C2.35417 16.8229 2.25 16.5156 2.25 16.1094V8.45312C2.25 8.04688 2.35417 7.73958 2.5625 7.53125C2.77083 7.32292 3.07031 7.21875 3.46094 7.21875H5.625V5.96094H3.44531C2.6276 5.96094 2.01302 6.16406 1.60156 6.57031C1.19531 6.97135 0.992188 7.57552 0.992188 8.38281V16.1797C0.992188 16.987 1.19531 17.5911 1.60156 17.9922C2.01302 18.3984 2.6276 18.6016 3.44531 18.6016ZM7.92188 12.4844C8.09375 12.4844 8.23958 12.4245 8.35938 12.3047C8.48438 12.1849 8.54688 12.0417 8.54688 11.875V3.85156L8.5 2.67969L9.02344 3.23438L10.2109 4.5C10.3203 4.625 10.4609 4.6875 10.6328 4.6875C10.7943 4.6875 10.9297 4.63542 11.0391 4.53125C11.1484 4.42708 11.2031 4.29427 11.2031 4.13281C11.2031 3.98698 11.1406 3.85156 11.0156 3.72656L8.375 1.17969C8.29688 1.10156 8.22135 1.04688 8.14844 1.01562C8.08073 0.984375 8.00521 0.96875 7.92188 0.96875C7.84375 0.96875 7.76823 0.984375 7.69531 1.01562C7.6276 1.04688 7.55208 1.10156 7.46875 1.17969L4.82812 3.72656C4.70833 3.85156 4.64844 3.98698 4.64844 4.13281C4.64844 4.29427 4.70052 4.42708 4.80469 4.53125C4.90885 4.63542 5.04427 4.6875 5.21094 4.6875C5.38802 4.6875 5.53125 4.625 5.64062 4.5L6.82031 3.23438L7.35156 2.67969L7.30469 3.85156V11.875C7.30469 12.0417 7.36458 12.1849 7.48438 12.3047C7.60938 12.4245 7.75521 12.4844 7.92188 12.4844Z" fill="#007AFF"/>
</svg>
